<svg width="527.832470703125px" height="123.23251953124999px" xmlns="http://www.w3.org/2000/svg" viewBox="-13.916235351562477 13.383740234375004 527.832470703125 123.23251953124999" style="background: rgb(40, 41, 47);" preserveAspectRatio="xMidYMid"><defs><filter id="editing-hole" x="-100%" y="-100%" width="300%" height="300%"><feFlood flood-color="#ffffff" result="black"></feFlood><feMorphology operator="dilate" radius="2" in="SourceGraphic" result="erode"></feMorphology><feGaussianBlur in="erode" stdDeviation="4" result="blur"></feGaussianBlur><feOffset in="blur" dx="2" dy="2" result="offset"></feOffset><feComposite operator="atop" in="offset" in2="black" result="merge"></feComposite><feComposite operator="in" in="merge" in2="SourceGraphic" result="inner-shadow"></feComposite></filter></defs><g filter="url(#editing-hole)"><g transform="translate(65.04500555992126, 100.04500007629395)"><path d="M32.77-48.43L32.77-17.26L32.77-17.26Q32.77-13.14 31.86-9.80L31.86-9.80L31.86-9.80Q30.95-6.46 29.04-4.10L29.04-4.10L29.04-4.10Q27.13-1.74 24.20-0.45L24.20-0.45L24.20-0.45Q21.26 0.85 17.26 0.85L17.26 0.85L17.26 0.85Q13.21 0.85 10.30-0.45L10.30-0.45L10.30-0.45Q7.38-1.74 5.51-4.10L5.51-4.10L5.51-4.10Q3.64-6.46 2.73-9.83L2.73-9.83L2.73-9.83Q1.82-13.21 1.82-17.33L1.82-17.33L1.82-48.43L6.90-48.43L6.90-17.26L6.90-17.26Q6.90-15.07 7.29-12.62L7.29-12.62L7.29-12.62Q7.68-10.17 8.81-8.16L8.81-8.16L8.81-8.16Q9.95-6.16 11.97-4.82L11.97-4.82L11.97-4.82Q13.99-3.49 17.26-3.49L17.26-3.49L17.26-3.49Q20.52-3.49 22.58-4.82L22.58-4.82L22.58-4.82Q24.64-6.16 25.77-8.16L25.77-8.16L25.77-8.16Q26.90-10.17 27.28-12.62L27.28-12.62L27.28-12.62Q27.65-15.07 27.65-17.26L27.65-17.26L27.65-48.43L32.77-48.43ZM74.26-48.43L74.26 0L67.95 0L48.39-40.97L48.39 0L43.31 0L43.31-48.43L50.47-48.43L69.13-9.35L69.13-48.43L74.26-48.43ZM117.49-34.59L117.49-34.59L117.49-34.59Q117.49-27.57 113.11-24.16L113.11-24.16L113.11-24.16Q108.73-20.74 100.83-20.74L100.83-20.74L89.88-20.74L89.88 0L84.79 0L84.79-48.43L100.75-48.43L100.75-48.43Q108.73-48.43 113.11-44.96L113.11-44.96L113.11-44.96Q117.49-41.49 117.49-34.59ZM112.40-34.59L112.40-34.59L112.40-34.59Q112.40-39.60 109.25-41.84L109.25-41.84L109.25-41.84Q106.10-44.09 100.83-44.09L100.83-44.09L89.88-44.09L89.88-25.09L100.83-25.09L100.83-25.09Q106.10-25.09 109.25-27.33L109.25-27.33L109.25-27.33Q112.40-29.58 112.40-34.59ZM157.23-4.34L157.23 0L126.28 0L126.28-48.43L131.37-48.43L131.37-4.34L157.23-4.34ZM198.72-48.43L198.72-17.26L198.72-17.26Q198.72-13.14 197.81-9.80L197.81-9.80L197.81-9.80Q196.90-6.46 194.99-4.10L194.99-4.10L194.99-4.10Q193.08-1.74 190.15-0.45L190.15-0.45L190.15-0.45Q187.22 0.85 183.21 0.85L183.21 0.85L183.21 0.85Q179.16 0.85 176.25-0.45L176.25-0.45L176.25-0.45Q173.34-1.74 171.46-4.10L171.46-4.10L171.46-4.10Q169.59-6.46 168.68-9.83L168.68-9.83L168.68-9.83Q167.77-13.21 167.77-17.33L167.77-17.33L167.77-48.43L172.86-48.43L172.86-17.26L172.86-17.26Q172.86-15.07 173.25-12.62L173.25-12.62L173.25-12.62Q173.63-10.17 174.77-8.16L174.77-8.16L174.77-8.16Q175.90-6.16 177.92-4.82L177.92-4.82L177.92-4.82Q179.94-3.49 183.21-3.49L183.21-3.49L183.21-3.49Q186.47-3.49 188.53-4.82L188.53-4.82L188.53-4.82Q190.59-6.16 191.73-8.16L191.73-8.16L191.73-8.16Q192.86-10.17 193.23-12.62L193.23-12.62L193.23-12.62Q193.60-15.07 193.60-17.26L193.60-17.26L193.60-48.43L198.72-48.43ZM243.92-25.09L243.92-24.08L243.92-24.08Q243.92-19.15 242.90-14.66L242.90-14.66L242.90-14.66Q241.88-10.17 239.63-6.72L239.63-6.72L239.63-6.72Q237.39-3.27 233.84-1.21L233.84-1.21L233.84-1.21Q230.30 0.85 225.29 0.85L225.29 0.85L225.29 0.85Q220.21 0.85 216.68-1.24L216.68-1.24L216.68-1.24Q213.16-3.34 210.91-6.79L210.91-6.79L210.91-6.79Q208.67-10.24 207.68-14.77L207.68-14.77L207.68-14.77Q206.70-19.30 206.70-24.16L206.70-24.16L206.70-24.16Q206.70-29.02 207.68-33.55L207.68-33.55L207.68-33.55Q208.67-38.07 210.91-41.56L210.91-41.56L210.91-41.56Q213.16-45.05 216.68-47.15L216.68-47.15L216.68-47.15Q220.21-49.24 225.29-49.24L225.29-49.24L225.29-49.24Q229.78-49.24 232.97-47.65L232.97-47.65L232.97-47.65Q236.16-46.05 237.69-42.79L237.69-42.79L237.69-48.43L242.03-48.43L242.03-32.54L237.69-32.54L237.69-32.54Q237.69-35.18 236.70-37.46L236.70-37.46L236.70-37.46Q235.72-39.74 234.05-41.38L234.05-41.38L234.05-41.38Q232.38-43.01 230.10-43.96L230.10-43.96L230.10-43.96Q227.81-44.90 225.29-44.90L225.29-44.90L225.29-44.90Q221.36-44.90 218.78-43.05L218.78-43.05L218.78-43.05Q216.20-41.19 214.64-38.19L214.64-38.19L214.64-38.19Q213.08-35.18 212.43-31.51L212.43-31.51L212.43-31.51Q211.78-27.83 211.78-24.16L211.78-24.16L211.78-24.16Q211.78-20.52 212.43-16.83L212.43-16.83L212.43-16.83Q213.08-13.14 214.64-10.19L214.64-10.19L214.64-10.19Q216.20-7.24 218.78-5.36L218.78-5.36L218.78-5.36Q221.36-3.49 225.29-3.49L225.29-3.49L225.29-3.49Q231.15-3.49 234.53-8.02L234.53-8.02L234.53-8.02Q237.91-12.54 238.54-20.74L238.54-20.74L227.81-20.74L227.81-25.09L243.92-25.09ZM285.41-25.09L285.41-24.08L285.41-24.08Q285.41-19.15 284.39-14.66L284.39-14.66L284.39-14.66Q283.37-10.17 281.12-6.72L281.12-6.72L281.12-6.72Q278.88-3.27 275.33-1.21L275.33-1.21L275.33-1.21Q271.79 0.85 266.78 0.85L266.78 0.85L266.78 0.85Q261.70 0.85 258.17-1.24L258.17-1.24L258.17-1.24Q254.64-3.34 252.40-6.79L252.40-6.79L252.40-6.79Q250.15-10.24 249.17-14.77L249.17-14.77L249.17-14.77Q248.19-19.30 248.19-24.16L248.19-24.16L248.19-24.16Q248.19-29.02 249.17-33.55L249.17-33.55L249.17-33.55Q250.15-38.07 252.40-41.56L252.40-41.56L252.40-41.56Q254.64-45.05 258.17-47.15L258.17-47.15L258.17-47.15Q261.70-49.24 266.78-49.24L266.78-49.24L266.78-49.24Q271.27-49.24 274.46-47.65L274.46-47.65L274.46-47.65Q277.65-46.05 279.17-42.79L279.17-42.79L279.17-48.43L283.52-48.43L283.52-32.54L279.17-32.54L279.17-32.54Q279.17-35.18 278.19-37.46L278.19-37.46L278.19-37.46Q277.21-39.74 275.54-41.38L275.54-41.38L275.54-41.38Q273.87-43.01 271.58-43.96L271.58-43.96L271.58-43.96Q269.30-44.90 266.78-44.90L266.78-44.90L266.78-44.90Q262.85-44.90 260.27-43.05L260.27-43.05L260.27-43.05Q257.69-41.19 256.13-38.19L256.13-38.19L256.13-38.19Q254.57-35.18 253.92-31.51L253.92-31.51L253.92-31.51Q253.27-27.83 253.27-24.16L253.27-24.16L253.27-24.16Q253.27-20.52 253.92-16.83L253.92-16.83L253.92-16.83Q254.57-13.14 256.13-10.19L256.13-10.19L256.13-10.19Q257.69-7.24 260.27-5.36L260.27-5.36L260.27-5.36Q262.85-3.49 266.78-3.49L266.78-3.49L266.78-3.49Q272.64-3.49 276.02-8.02L276.02-8.02L276.02-8.02Q279.40-12.54 280.03-20.74L280.03-20.74L269.30-20.74L269.30-25.09L285.41-25.09ZM323.19-4.34L323.19 0L292.24 0L292.24-48.43L323.19-48.43L323.19-44.09L297.32-44.09L297.32-26.76L316.39-26.76L316.39-22.41L297.32-22.41L297.32-4.34L323.19-4.34ZM368.09-24.16L368.09-24.16L368.09-24.16Q368.09-19.30 367.07-14.90L367.07-14.90L367.07-14.90Q366.05-10.50 363.80-7.18L363.80-7.18L363.80-7.18Q361.56-3.86 358.01-1.93L358.01-1.93L358.01-1.93Q354.47 0 349.46 0L349.46 0L333.72 0L333.72-48.43L349.46-48.43L349.46-48.43Q354.39-48.43 357.94-46.44L357.94-46.44L357.94-46.44Q361.48-44.46 363.73-41.12L363.73-41.12L363.73-41.12Q365.97-37.78 367.03-33.40L367.03-33.40L367.03-33.40Q368.09-29.02 368.09-24.16ZM363.00-24.16L363.00-24.16L363.00-24.16Q363.00-33.66 359.42-38.87L359.42-38.87L359.42-38.87Q355.84-44.09 349.46-44.09L349.46-44.09L338.81-44.09L338.81-4.34L349.46-4.34L349.46-4.34Q355.84-4.34 359.42-9.50L359.42-9.50L359.42-9.50Q363.00-14.66 363.00-24.16Z" fill="#0a0a0a"></path></g></g><style>text {
  font-size: 64px;
  font-family: Arial Black;
  dominant-baseline: central;
  text-anchor: middle;
}</style></svg>